<?xml version="1.0" encoding="UTF-8" standalone="no"?><svg xmlns="http://www.w3.org/2000/svg" xmlns:xlink="http://www.w3.org/1999/xlink" fill="#ffffff" height="107" viewBox="0 0 138.44 106.72" width="138"><g fill="#be0000"><path d="M89.57,42.64c-.42,.42-.93,.63-1.52,.63s-1.1-.21-1.52-.63c-.42-.42-.62-.93-.62-1.53s.21-1.1,.63-1.52c.42-.42,.92-.63,1.51-.63s1.1,.21,1.52,.63c.42,.42,.63,.92,.63,1.52s-.21,1.1-.63,1.53Zm-2.83-2.83c-.36,.36-.54,.8-.54,1.31s.18,.95,.54,1.32c.36,.36,.8,.54,1.31,.54s.95-.18,1.31-.54c.36-.36,.54-.8,.54-1.32s-.18-.95-.54-1.31c-.36-.36-.8-.54-1.31-.54s-.95,.18-1.31,.54Zm1.27,.12c.29,0,.51,.03,.64,.09,.24,.1,.37,.3,.37,.6,0,.21-.08,.37-.23,.47-.08,.05-.2,.09-.34,.11,.18,.03,.32,.11,.4,.23,.09,.12,.13,.25,.13,.37v.17c0,.05,0,.11,0,.18s.01,.1,.02,.12v.03s-.37,0-.37,0c0,0,0-.02,0-.02,0,0,0-.02,0-.03v-.08s0-.19,0-.19c0-.27-.07-.45-.22-.54-.09-.05-.24-.08-.46-.08h-.33v.93h-.42v-2.36h.83Zm.45,.37c-.11-.06-.27-.09-.5-.09h-.36v.86h.38c.18,0,.31-.02,.4-.05,.16-.06,.24-.19,.24-.37,0-.17-.05-.29-.16-.35Z"/><path d="M45.96 0L45.96 12.86 50.25 12.86 50.25 34.23 58.82 42.75 80.14 42.75 88.71 34.23 88.71 12.86 93 12.86 93 0 71.62 0 71.62 12.86 75.91 12.86 75.91 29.89 63.05 29.89 63.05 12.86 67.34 12.86 67.34 0 45.96 0z" fill-rule="evenodd"/></g><g><path d="M4.1,57.63c0,.96,0,1.75,.05,2.17,.03,.29,.09,.51,.39,.55,.14,.02,.36,.04,.45,.04,.06,0,.08,.03,.08,.06,0,.05-.05,.08-.16,.08-.55,0-1.18-.03-1.23-.03s-.68,.03-.98,.03c-.11,0-.16-.02-.16-.08,0-.03,.02-.06,.08-.06,.09,0,.21-.02,.3-.04,.2-.04,.25-.26,.29-.55,.05-.42,.05-1.21,.05-2.17v-4.23l-1.48,.02c-.62,.01-.86,.08-1.02,.32-.11,.17-.14,.24-.17,.31-.03,.08-.06,.1-.1,.1-.03,0-.05-.03-.05-.09,0-.1,.2-.96,.22-1.04,.02-.06,.06-.19,.1-.19,.07,0,.17,.1,.44,.12,.29,.03,.67,.05,.79,.05h3.75c.32,0,.55-.02,.71-.05,.15-.02,.24-.05,.28-.05,.05,0,.05,.06,.05,.12,0,.3-.03,.99-.03,1.1,0,.09-.03,.13-.07,.13-.05,0-.07-.03-.08-.17v-.11c-.04-.3-.28-.53-1.24-.55l-1.26-.02v4.23Z"/><path d="M14.63,57.63c0,.96,0,1.75,.05,2.17,.03,.29,.09,.51,.39,.55,.14,.02,.36,.04,.45,.04,.06,0,.08,.03,.08,.06,0,.05-.05,.08-.16,.08-.55,0-1.18-.03-1.23-.03s-.68,.03-.98,.03c-.11,0-.16-.02-.16-.08,0-.03,.02-.06,.08-.06,.09,0,.21-.02,.3-.04,.2-.04,.25-.26,.29-.55,.05-.42,.05-1.21,.05-2.17v-1.05s-.03-.06-.06-.06h-4.24s-.06,.01-.06,.06v1.05c0,.96,0,1.75,.05,2.17,.03,.29,.09,.51,.39,.55,.14,.02,.36,.04,.45,.04,.06,0,.08,.03,.08,.06,0,.05-.05,.08-.16,.08-.55,0-1.18-.03-1.23-.03s-.68,.03-.98,.03c-.11,0-.16-.02-.16-.08,0-.03,.02-.06,.08-.06,.09,0,.21-.02,.3-.04,.2-.04,.25-.26,.29-.55,.05-.42,.05-1.21,.05-2.17v-1.76c0-1.56,0-1.84-.02-2.16-.02-.34-.1-.5-.43-.57-.08-.02-.25-.03-.34-.03-.04,0-.08-.02-.08-.06,0-.06,.05-.08,.16-.08,.45,0,1.08,.03,1.13,.03s.68-.03,.98-.03c.11,0,.16,.02,.16,.08,0,.04-.04,.06-.08,.06-.07,0-.13,0-.25,.03-.27,.05-.35,.22-.37,.57-.02,.32-.02,.6-.02,2.16v.21s.03,.06,.06,.06h4.24s.06-.01,.06-.06v-.21c0-1.56,0-1.84-.02-2.16-.02-.34-.1-.5-.43-.57-.08-.02-.25-.03-.34-.03-.04,0-.08-.02-.08-.06,0-.06,.05-.08,.16-.08,.45,0,1.08,.03,1.13,.03s.68-.03,.98-.03c.11,0,.16,.02,.16,.08,0,.04-.04,.06-.08,.06-.07,0-.13,0-.25,.03-.27,.05-.35,.22-.37,.57-.02,.32-.02,.6-.02,2.16v1.76Z"/><path d="M17.61,55.87c0-1.56,0-1.84-.02-2.16-.02-.34-.1-.5-.43-.57-.08-.02-.25-.03-.34-.03-.04,0-.08-.02-.08-.06,0-.06,.05-.08,.16-.08,.23,0,.5,0,.72,0l.41,.02c.07,0,2.06,0,2.29,0,.19-.01,.35-.03,.43-.05,.05-.01,.09-.05,.14-.05,.03,0,.04,.04,.04,.09,0,.07-.05,.19-.08,.47-.01,.1-.03,.54-.05,.66,0,.05-.03,.11-.07,.11-.06,0-.08-.05-.08-.13,0-.07,0-.24-.06-.36-.07-.16-.17-.28-.71-.34-.17-.02-1.26-.03-1.37-.03-.04,0-.06,.03-.06,.1v2.76c0,.07,.01,.1,.06,.1,.13,0,1.36,0,1.59-.02,.24-.02,.38-.04,.47-.14,.07-.08,.11-.13,.15-.13,.03,0,.05,.02,.05,.08s-.05,.23-.08,.56c-.02,.2-.04,.57-.04,.64,0,.08,0,.19-.07,.19-.05,0-.07-.04-.07-.09,0-.1,0-.2-.04-.33-.04-.14-.13-.31-.52-.35-.27-.03-1.26-.05-1.43-.05-.05,0-.07,.03-.07,.07v.88c0,.34,0,1.5,0,1.71,.03,.69,.18,.82,1.16,.82,.26,0,.7,0,.96-.11s.38-.31,.45-.72c.02-.11,.04-.15,.09-.15,.06,0,.06,.08,.06,.15,0,.08-.08,.76-.13,.97-.07,.26-.15,.26-.54,.26-.75,0-1.3-.02-1.69-.03-.39-.02-.63-.03-.78-.03-.02,0-.19,0-.4,0-.2,0-.43,.02-.58,.02-.11,0-.16-.02-.16-.08,0-.03,.02-.06,.08-.06,.09,0,.21-.02,.3-.04,.2-.04,.25-.26,.29-.55,.05-.42,.05-1.21,.05-2.17v-1.76Z"/><path d="M25.58,55.87c0-1.56,0-1.84-.02-2.16-.02-.34-.1-.5-.43-.57-.08-.02-.25-.03-.34-.03-.04,0-.08-.02-.08-.06,0-.06,.05-.08,.16-.08,.45,0,1.06,.03,1.15,.03s.69-.03,.99-.03c.11,0,.16,.02,.16,.08,0,.04-.04,.06-.08,.06-.07,0-.13,0-.25,.03-.27,.04-.35,.22-.37,.57-.02,.32-.02,.6-.02,2.16v1.4c0,1.44,.32,2.06,.75,2.47,.49,.46,.94,.55,1.51,.55,.61,0,1.21-.29,1.57-.72,.46-.57,.58-1.42,.58-2.45v-1.25c0-1.56,0-1.84-.02-2.16-.02-.34-.1-.5-.43-.57-.08-.02-.25-.03-.34-.03-.04,0-.08-.02-.08-.06,0-.06,.05-.08,.16-.08,.45,0,1,.03,1.06,.03,.07,0,.54-.03,.84-.03,.11,0,.16,.02,.16,.08,0,.04-.04,.06-.08,.06-.07,0-.13,0-.25,.03-.27,.06-.35,.22-.37,.57-.02,.32-.02,.6-.02,2.16v1.07c0,1.08-.12,2.28-.92,2.99-.72,.64-1.47,.74-2.06,.74-.34,0-1.35-.04-2.06-.71-.49-.47-.87-1.17-.87-2.63v-1.46Z"/><path d="M34.1,59.17c.02,.82,.12,1.08,.39,1.16,.19,.05,.41,.06,.5,.06,.05,0,.08,.02,.08,.06,0,.06-.06,.08-.18,.08-.57,0-.97-.03-1.06-.03s-.51,.03-.96,.03c-.1,0-.16,0-.16-.08,0-.04,.03-.06,.08-.06,.08,0,.26-.01,.41-.06,.25-.07,.3-.36,.3-1.27v-5.73c0-.39,.04-.5,.12-.5s.25,.22,.35,.32c.15,.17,1.64,1.78,3.18,3.43,.99,1.06,2.08,2.28,2.4,2.61l-.11-5.08c0-.65-.08-.87-.39-.95-.18-.04-.41-.05-.49-.05-.07,0-.08-.03-.08-.07,0-.06,.08-.07,.2-.07,.45,0,.93,.03,1.04,.03s.44-.03,.85-.03c.11,0,.18,0,.18,.07,0,.04-.04,.07-.11,.07-.05,0-.12,0-.24,.03-.33,.07-.37,.29-.37,.89l-.02,5.86c0,.66-.02,.71-.09,.71-.08,0-.2-.11-.73-.64-.11-.1-1.55-1.57-2.61-2.71-1.16-1.25-2.29-2.51-2.61-2.87l.13,4.79Z"/><path d="M43.59,57.63c0,.96,0,1.75,.05,2.17,.03,.29,.09,.51,.39,.55,.14,.02,.36,.04,.45,.04,.06,0,.08,.03,.08,.06,0,.05-.05,.08-.16,.08-.55,0-1.18-.03-1.23-.03s-.68,.03-.98,.03c-.11,0-.16-.02-.16-.08,0-.03,.02-.06,.08-.06,.09,0,.21-.02,.3-.04,.2-.04,.25-.26,.29-.55,.05-.42,.05-1.21,.05-2.17v-1.76c0-1.56,0-1.84-.02-2.16-.02-.34-.12-.51-.34-.56-.11-.03-.24-.04-.31-.04-.04,0-.08-.02-.08-.06,0-.06,.05-.08,.16-.08,.33,0,.96,.03,1.01,.03s.68-.03,.98-.03c.11,0,.16,.02,.16,.08,0,.04-.04,.06-.08,.06-.07,0-.13,0-.25,.03-.27,.05-.35,.22-.37,.57-.02,.32-.02,.6-.02,2.16v1.76Z"/><path d="M49.23,59.31c.58-1.34,1.92-4.83,2.14-5.55,.05-.15,.09-.29,.09-.38,0-.08-.03-.18-.13-.23-.12-.04-.27-.04-.38-.04-.06,0-.11-.01-.11-.06,0-.06,.06-.08,.22-.08,.4,0,.86,.03,.98,.03,.06,0,.49-.03,.78-.03,.11,0,.17,.02,.17,.07s-.04,.07-.12,.07c-.07,0-.29,0-.48,.12-.13,.09-.28,.26-.55,.94-.11,.28-.61,1.48-1.12,2.71-.61,1.46-1.06,2.54-1.29,3.03-.28,.6-.32,.76-.42,.76-.12,0-.17-.14-.36-.62l-2.45-6.13c-.22-.56-.37-.67-.72-.77-.15-.04-.32-.04-.38-.04s-.08-.03-.08-.07c0-.06,.1-.07,.26-.07,.48,0,1.05,.03,1.17,.03,.1,0,.55-.03,.93-.03,.18,0,.27,.02,.27,.07s-.03,.07-.1,.07c-.11,0-.29,0-.38,.05-.11,.05-.13,.13-.13,.2,0,.13,.12,.44,.27,.83l1.92,5.12Z"/><path d="M54.5,55.87c0-1.56,0-1.84-.02-2.16-.02-.34-.1-.5-.43-.57-.08-.02-.25-.03-.34-.03-.04,0-.08-.02-.08-.06,0-.06,.05-.08,.16-.08,.23,0,.5,0,.72,0l.41,.02c.07,0,2.06,0,2.29,0,.19-.01,.35-.03,.43-.05,.05-.01,.09-.05,.14-.05,.03,0,.04,.04,.04,.09,0,.07-.05,.19-.08,.47-.01,.1-.03,.54-.05,.66,0,.05-.03,.11-.07,.11-.06,0-.08-.05-.08-.13,0-.07,0-.24-.06-.36-.07-.16-.17-.28-.71-.34-.17-.02-1.26-.03-1.37-.03-.04,0-.06,.03-.06,.1v2.76c0,.07,.01,.1,.06,.1,.13,0,1.36,0,1.59-.02,.24-.02,.38-.04,.47-.14,.07-.08,.11-.13,.15-.13,.03,0,.05,.02,.05,.08s-.05,.23-.08,.56c-.02,.2-.04,.57-.04,.64,0,.08,0,.19-.07,.19-.05,0-.07-.04-.07-.09,0-.1,0-.2-.04-.33-.04-.14-.13-.31-.52-.35-.27-.03-1.26-.05-1.43-.05-.05,0-.07,.03-.07,.07v.88c0,.34,0,1.5,0,1.71,.03,.69,.18,.82,1.16,.82,.26,0,.7,0,.96-.11s.38-.31,.45-.72c.02-.11,.04-.15,.09-.15,.06,0,.06,.08,.06,.15,0,.08-.08,.76-.13,.97-.07,.26-.15,.26-.54,.26-.75,0-1.3-.02-1.69-.03-.39-.02-.63-.03-.78-.03-.02,0-.19,0-.4,0-.2,0-.43,.02-.58,.02-.11,0-.16-.02-.16-.08,0-.03,.02-.06,.08-.06,.09,0,.21-.02,.3-.04,.2-.04,.25-.26,.29-.55,.05-.42,.05-1.21,.05-2.17v-1.76Z"/><path d="M59.97,55.87c0-1.56,0-1.84-.02-2.16-.02-.34-.1-.5-.43-.57-.08-.02-.25-.03-.34-.03-.04,0-.08-.02-.08-.06,0-.06,.05-.08,.16-.08,.45,0,1.08,.03,1.13,.03,.11,0,.87-.03,1.18-.03,.63,0,1.3,.06,1.83,.44,.25,.18,.69,.67,.69,1.36,0,.74-.31,1.48-1.21,2.31,.82,1.05,1.5,1.94,2.08,2.56,.54,.57,.97,.68,1.22,.72,.19,.03,.33,.03,.39,.03,.05,0,.09,.03,.09,.06,0,.06-.06,.08-.24,.08h-.71c-.56,0-.81-.05-1.07-.19-.43-.23-.78-.72-1.35-1.47-.42-.55-.89-1.22-1.09-1.48-.04-.04-.07-.06-.13-.06l-1.23-.02s-.07,.03-.07,.08v.24c0,.96,0,1.75,.05,2.17,.03,.29,.09,.51,.39,.55,.14,.02,.36,.04,.45,.04,.06,0,.08,.03,.08,.06,0,.05-.05,.08-.16,.08-.55,0-1.18-.03-1.23-.03-.01,0-.64,.03-.94,.03-.11,0-.16-.02-.16-.08,0-.03,.02-.06,.08-.06,.09,0,.21-.02,.3-.04,.2-.04,.25-.26,.29-.55,.05-.42,.05-1.21,.05-2.17v-1.76Zm.8,.87s.02,.09,.07,.12c.15,.09,.61,.16,1.05,.16,.24,0,.52-.03,.75-.19,.35-.24,.61-.78,.61-1.54,0-1.25-.66-2-1.73-2-.3,0-.57,.03-.67,.06-.05,.02-.08,.06-.08,.12v3.27Z"/><path d="M67.14,60.4c-.14-.07-.15-.11-.15-.38,0-.5,.04-.9,.05-1.06,.01-.11,.03-.16,.08-.16,.06,0,.07,.03,.07,.11,0,.09,0,.23,.03,.37,.15,.74,.81,1.02,1.48,1.02,.96,0,1.43-.69,1.43-1.33,0-.69-.29-1.09-1.15-1.8l-.45-.37c-1.06-.87-1.3-1.49-1.3-2.17,0-1.07,.8-1.8,2.07-1.8,.39,0,.68,.04,.93,.1,.19,.04,.27,.05,.35,.05s.1,.02,.1,.07-.04,.38-.04,1.06c0,.16-.02,.23-.07,.23-.06,0-.07-.05-.08-.13,0-.12-.07-.39-.13-.5-.06-.11-.33-.53-1.25-.53-.69,0-1.23,.43-1.23,1.16,0,.57,.26,.93,1.22,1.68l.28,.22c1.18,.93,1.46,1.55,1.46,2.35,0,.41-.16,1.17-.85,1.66-.43,.3-.97,.42-1.51,.42-.47,0-.93-.07-1.34-.27Z"/><path d="M73.63,57.63c0,.96,0,1.75,.05,2.17,.03,.29,.09,.51,.39,.55,.14,.02,.36,.04,.45,.04,.06,0,.08,.03,.08,.06,0,.05-.05,.08-.16,.08-.55,0-1.18-.03-1.23-.03s-.68,.03-.98,.03c-.11,0-.16-.02-.16-.08,0-.03,.02-.06,.08-.06,.09,0,.21-.02,.3-.04,.2-.04,.25-.26,.29-.55,.05-.42,.05-1.21,.05-2.17v-1.76c0-1.56,0-1.84-.02-2.16-.02-.34-.12-.51-.34-.56-.11-.03-.24-.04-.31-.04-.04,0-.08-.02-.08-.06,0-.06,.05-.08,.16-.08,.33,0,.96,.03,1.01,.03s.68-.03,.98-.03c.11,0,.16,.02,.16,.08,0,.04-.04,.06-.08,.06-.07,0-.13,0-.25,.03-.27,.05-.35,.22-.37,.57-.02,.32-.02,.6-.02,2.16v1.76Z"/><path d="M78.91,57.63c0,.96,0,1.75,.05,2.17,.03,.29,.09,.51,.39,.55,.14,.02,.36,.04,.45,.04,.06,0,.08,.03,.08,.06,0,.05-.05,.08-.16,.08-.55,0-1.18-.03-1.23-.03s-.68,.03-.98,.03c-.11,0-.16-.02-.16-.08,0-.03,.02-.06,.08-.06,.09,0,.21-.02,.3-.04,.2-.04,.25-.26,.29-.55,.05-.42,.05-1.21,.05-2.17v-4.23l-1.48,.02c-.62,.01-.86,.08-1.02,.32-.11,.17-.14,.24-.17,.31-.03,.08-.06,.1-.1,.1-.03,0-.05-.03-.05-.09,0-.1,.2-.96,.22-1.04,.02-.06,.06-.19,.1-.19,.07,0,.17,.1,.44,.12,.29,.03,.67,.05,.79,.05h3.75c.32,0,.55-.02,.71-.05,.15-.02,.24-.05,.28-.05,.05,0,.05,.06,.05,.12,0,.3-.03,.99-.03,1.1,0,.09-.03,.13-.07,.13-.05,0-.07-.03-.08-.17v-.11c-.04-.3-.28-.53-1.24-.55l-1.26-.02v4.23Z"/><path d="M85.11,57.94c0-.54-.1-.76-.23-1.05-.07-.16-1.41-2.36-1.76-2.88-.25-.37-.5-.62-.68-.74-.15-.1-.34-.16-.43-.16-.05,0-.1-.02-.1-.07,0-.04,.04-.07,.13-.07,.19,0,.94,.03,.99,.03,.07,0,.45-.03,.84-.03,.11,0,.13,.03,.13,.07s-.06,.05-.15,.09c-.08,.04-.13,.1-.13,.18,0,.12,.05,.24,.13,.39,.16,.29,1.66,2.87,1.84,3.16,.19-.42,1.46-2.61,1.66-2.94,.13-.21,.17-.38,.17-.51,0-.14-.04-.25-.16-.28-.09-.03-.15-.05-.15-.1,0-.04,.06-.06,.16-.06,.26,0,.58,.03,.66,.03,.06,0,.78-.03,.97-.03,.07,0,.13,.02,.13,.06,0,.05-.05,.08-.13,.08-.11,0-.3,.04-.46,.14-.2,.12-.31,.24-.53,.51-.33,.4-1.73,2.75-1.91,3.18-.15,.36-.15,.67-.15,1v.86c0,.16,0,.58,.03,1,.02,.29,.11,.51,.41,.55,.14,.02,.36,.04,.45,.04,.06,0,.08,.03,.08,.06,0,.05-.05,.08-.16,.08-.55,0-1.18-.03-1.23-.03s-.68,.03-.98,.03c-.11,0-.16-.02-.16-.08,0-.03,.02-.06,.08-.06,.09,0,.21-.02,.3-.04,.2-.04,.29-.26,.31-.55,.03-.42,.03-.84,.03-1v-.86Z"/><path d="M95.79,52.83c2.25,0,3.93,1.42,3.93,3.75s-1.58,4.09-3.99,4.09c-2.74,0-3.88-2.13-3.88-3.93,0-1.62,1.18-3.91,3.94-3.91Zm.21,7.46c.9,0,2.76-.52,2.76-3.43,0-2.4-1.46-3.69-3.04-3.69-1.67,0-2.92,1.1-2.92,3.29,0,2.33,1.4,3.83,3.2,3.83Z"/><path d="M101.46,55.87c0-1.56,0-1.84-.02-2.16-.02-.34-.1-.5-.43-.57-.08-.02-.25-.03-.34-.03-.04,0-.08-.02-.08-.06,0-.06,.05-.08,.16-.08,.23,0,.5,0,.72,0l.41,.02c.2,.01,2.23,0,2.46,0,.19-.01,.35-.01,.44-.04,.06-.02,.1-.06,.14-.06s.06,.04,.06,.09c0,.07-.05,.19-.08,.47,0,.1-.03,.54-.05,.66,0,.05-.03,.11-.08,.11s-.07-.05-.07-.12c0-.08-.03-.25-.09-.38-.06-.13-.29-.31-.68-.32l-1.54-.03c-.06,0-.09,.03-.09,.11v2.76c0,.06,.01,.09,.07,.09h1.28c.17-.01,.31-.01,.45-.02,.24-.02,.37-.05,.46-.18,.04-.05,.07-.1,.11-.1s.05,.03,.05,.08c0,.06-.05,.23-.08,.56-.02,.2-.04,.6-.04,.67,0,.09,0,.19-.07,.19-.05,0-.07-.04-.07-.09,0-.1-.02-.24-.06-.36-.05-.14-.21-.32-.52-.36-.25-.03-1.34-.03-1.51-.03-.05,0-.07,.02-.07,.09v.85c0,.96,0,1.75,.05,2.17,.03,.29,.09,.51,.39,.55,.14,.02,.36,.04,.45,.04,.06,0,.08,.03,.08,.06,0,.05-.05,.08-.16,.08-.55,0-1.18-.03-1.23-.03s-.68,.03-.98,.03c-.11,0-.16-.02-.16-.08,0-.03,.02-.06,.08-.06,.09,0,.21-.02,.3-.04,.2-.04,.25-.26,.29-.55,.05-.42,.05-1.21,.05-2.17v-1.76Z"/><path d="M109.25,55.87c0-1.56,0-1.84-.02-2.16-.02-.34-.1-.5-.43-.57-.08-.02-.25-.03-.34-.03-.04,0-.08-.02-.08-.06,0-.06,.05-.08,.16-.08,.45,0,1.06,.03,1.15,.03s.69-.03,.99-.03c.11,0,.16,.02,.16,.08,0,.04-.04,.06-.08,.06-.07,0-.13,0-.25,.03-.27,.04-.35,.22-.37,.57-.02,.32-.02,.6-.02,2.16v1.4c0,1.44,.32,2.06,.75,2.47,.49,.46,.94,.55,1.51,.55,.61,0,1.21-.29,1.57-.72,.46-.57,.58-1.42,.58-2.45v-1.25c0-1.56,0-1.84-.02-2.16-.02-.34-.1-.5-.43-.57-.08-.02-.25-.03-.34-.03-.04,0-.08-.02-.08-.06,0-.06,.05-.08,.16-.08,.45,0,1,.03,1.06,.03,.07,0,.54-.03,.84-.03,.11,0,.16,.02,.16,.08,0,.04-.04,.06-.08,.06-.07,0-.13,0-.25,.03-.27,.06-.35,.22-.37,.57-.02,.32-.02,.6-.02,2.16v1.07c0,1.08-.12,2.28-.92,2.99-.72,.64-1.47,.74-2.06,.74-.34,0-1.35-.04-2.06-.71-.49-.47-.87-1.17-.87-2.63v-1.46Z"/><path d="M120.14,57.63c0,.96,0,1.75,.05,2.17,.03,.29,.09,.51,.39,.55,.14,.02,.36,.04,.45,.04,.06,0,.08,.03,.08,.06,0,.05-.05,.08-.16,.08-.55,0-1.18-.03-1.23-.03s-.68,.03-.98,.03c-.11,0-.16-.02-.16-.08,0-.03,.02-.06,.08-.06,.09,0,.21-.02,.3-.04,.2-.04,.25-.26,.29-.55,.05-.42,.05-1.21,.05-2.17v-4.23l-1.48,.02c-.62,.01-.86,.08-1.02,.32-.11,.17-.14,.24-.17,.31-.03,.08-.06,.1-.1,.1-.03,0-.05-.03-.05-.09,0-.1,.2-.96,.22-1.04,.02-.06,.06-.19,.1-.19,.07,0,.17,.1,.44,.12,.29,.03,.67,.05,.79,.05h3.75c.32,0,.55-.02,.71-.05,.15-.02,.24-.05,.28-.05,.05,0,.05,.06,.05,.12,0,.3-.03,.99-.03,1.1,0,.09-.03,.13-.07,.13-.05,0-.07-.03-.08-.17v-.11c-.04-.3-.28-.53-1.24-.55l-1.26-.02v4.23Z"/><path d="M125.82,53.22c.12-.33,.16-.39,.22-.39s.1,.05,.22,.36c.15,.38,1.72,4.51,2.33,6.03,.36,.89,.65,1.05,.86,1.11,.15,.05,.3,.06,.4,.06,.06,0,.1,0,.1,.06,0,.06-.09,.08-.2,.08-.15,0-.88,0-1.57-.02-.19,0-.3,0-.3-.07,0-.04,.03-.06,.07-.07,.06-.02,.12-.11,.06-.27l-.93-2.46s-.04-.06-.09-.06h-2.15s-.08,.03-.1,.08l-.6,1.77c-.09,.25-.14,.49-.14,.67,0,.2,.21,.29,.38,.29h.1c.07,0,.1,.02,.1,.06,0,.06-.06,.08-.15,.08-.24,0-.67-.03-.78-.03s-.66,.03-1.13,.03c-.13,0-.19-.02-.19-.08,0-.04,.04-.06,.09-.06,.07,0,.21-.01,.29-.02,.46-.06,.66-.44,.84-.94l2.27-6.21Zm1.04,4s.05-.03,.04-.07l-.95-2.7c-.05-.15-.1-.15-.15,0l-.88,2.7s0,.07,.03,.07h1.91Z"/><path d="M137.39,57.63c0,.96,0,1.75,.05,2.17,.03,.29,.09,.51,.39,.55,.14,.02,.36,.04,.45,.04,.06,0,.08,.03,.08,.06,0,.05-.05,.08-.16,.08-.55,0-1.18-.03-1.23-.03s-.68,.03-.98,.03c-.11,0-.16-.02-.16-.08,0-.03,.02-.06,.08-.06,.09,0,.21-.02,.3-.04,.2-.04,.25-.26,.29-.55,.05-.42,.05-1.21,.05-2.17v-1.05s-.03-.06-.06-.06h-4.24s-.06,.01-.06,.06v1.05c0,.96,0,1.75,.05,2.17,.03,.29,.09,.51,.39,.55,.14,.02,.36,.04,.45,.04,.06,0,.08,.03,.08,.06,0,.05-.05,.08-.16,.08-.55,0-1.18-.03-1.23-.03s-.68,.03-.98,.03c-.11,0-.16-.02-.16-.08,0-.03,.02-.06,.08-.06,.09,0,.21-.02,.3-.04,.2-.04,.25-.26,.29-.55,.05-.42,.05-1.21,.05-2.17v-1.76c0-1.56,0-1.84-.02-2.16-.02-.34-.1-.5-.43-.57-.08-.02-.25-.03-.34-.03-.04,0-.08-.02-.08-.06,0-.06,.05-.08,.16-.08,.45,0,1.08,.03,1.13,.03s.68-.03,.98-.03c.11,0,.16,.02,.16,.08,0,.04-.04,.06-.08,.06-.07,0-.13,0-.25,.03-.27,.05-.35,.22-.37,.57-.02,.32-.02,.6-.02,2.16v.21s.03,.06,.06,.06h4.24s.06-.01,.06-.06v-.21c0-1.56,0-1.84-.02-2.16-.02-.34-.1-.5-.43-.57-.08-.02-.25-.03-.34-.03-.04,0-.08-.02-.08-.06,0-.06,.05-.08,.16-.08,.45,0,1.08,.03,1.13,.03s.68-.03,.98-.03c.11,0,.16,.02,.16,.08,0,.04-.04,.06-.08,.06-.07,0-.13,0-.25,.03-.27,.05-.35,.22-.37,.57-.02,.32-.02,.6-.02,2.16v1.76Z"/><path d="M26.58,70.41c-.12-.06-.13-.09-.13-.32,0-.42,.04-.76,.05-.9,0-.09,.02-.14,.07-.14s.08,.03,.08,.1,0,.19,.03,.31c.14,.62,.8,.84,1.39,.84,.87,0,1.32-.49,1.32-1.13s-.33-.9-1.11-1.48l-.4-.3c-.95-.71-1.26-1.23-1.26-1.82,0-1,.79-1.6,1.95-1.6,.35,0,.7,.05,.91,.1,.17,.04,.24,.04,.31,.04s.09,.01,.09,.06c0,.04-.04,.32-.04,.9,0,.13,0,.19-.07,.19s-.07-.04-.08-.11c0-.1-.08-.33-.13-.42-.06-.1-.35-.42-1.14-.42-.64,0-1.17,.32-1.17,.92,0,.54,.27,.85,1.14,1.44l.25,.17c1.07,.73,1.44,1.32,1.44,2.05,0,.5-.19,1.04-.82,1.45-.37,.24-.92,.3-1.4,.3-.41,0-.92-.06-1.28-.23Z"/><path d="M32.05,69.73c-.86-.74-1.07-1.71-1.07-2.52,0-.57,.21-1.56,.99-2.32,.53-.51,1.33-.91,2.68-.91,.35,0,.85,.03,1.28,.1,.33,.06,.61,.12,.9,.13,.09,0,.11,.04,.11,.09,0,.07-.02,.17-.04,.48-.01,.28-.01,.75-.02,.87,0,.13-.05,.18-.1,.18-.06,0-.07-.06-.07-.18,0-.33-.14-.67-.37-.85-.31-.26-.95-.47-1.73-.47-1.13,0-1.67,.3-1.98,.59-.65,.6-.79,1.36-.79,2.22,0,1.63,1.29,3.08,3.17,3.08,.66,0,1.1-.05,1.45-.4,.19-.19,.31-.55,.34-.71,.02-.09,.03-.12,.09-.12,.04,0,.08,.06,.08,.12s-.12,.8-.21,1.09c-.05,.16-.07,.19-.22,.25-.36,.14-1.02,.19-1.59,.19-1.32,0-2.21-.31-2.9-.91Z"/><path d="M43.99,68.06c0,.82,0,1.49,.05,1.84,.03,.25,.05,.41,.32,.45,.12,.02,.32,.04,.39,.04,.06,0,.08,.04,.08,.07,0,.04-.05,.07-.15,.07-.48,0-1.04-.03-1.09-.03-.04,0-.61,.03-.87,.03-.1,0-.14-.02-.14-.07,0-.03,.02-.07,.07-.07,.08,0,.18-.02,.26-.04,.18-.04,.21-.21,.24-.46,.04-.35,.04-.99,.04-1.81v-.85s-.02-.05-.05-.05h-3.67s-.05,.01-.05,.05v.85c0,.82,0,1.47,.04,1.82,.03,.25,.06,.41,.32,.45,.13,.02,.32,.04,.4,.04,.05,0,.07,.04,.07,.07,0,.04-.04,.07-.14,.07-.49,0-1.05-.03-1.09-.03-.05,0-.61,.03-.88,.03-.09,0-.14-.02-.14-.07,0-.03,.02-.07,.07-.07,.08,0,.19-.02,.27-.04,.17-.04,.19-.2,.23-.45,.05-.35,.05-1.02,.05-1.84v-1.5c0-1.32,0-1.56-.02-1.83-.02-.29-.07-.43-.36-.47-.07,0-.22-.02-.3-.02-.03,0-.07-.04-.07-.07,0-.05,.04-.07,.14-.07,.4,0,.96,.02,1.01,.02,.04,0,.6-.02,.87-.02,.1,0,.14,.02,.14,.07,0,.03-.04,.07-.07,.07-.06,0-.12,0-.22,.02-.24,.05-.29,.17-.31,.47,0,.27,0,.53,0,1.85v.18s.02,.05,.05,.05h3.67s.05,0,.05-.05v-.18c0-1.32,0-1.58-.02-1.85-.02-.29-.06-.43-.35-.47-.07,0-.22-.02-.3-.02-.04,0-.07-.04-.07-.07,0-.05,.04-.07,.14-.07,.39,0,.96,.02,1,.02,.05,0,.61-.02,.87-.02,.1,0,.15,.02,.15,.07,0,.03-.04,.07-.08,.07-.06,0-.11,0-.22,.02-.23,.05-.28,.17-.3,.47-.02,.27-.02,.51-.02,1.83v1.5Z"/><path d="M48.96,63.98c1.98,0,3.48,1.21,3.48,3.19s-1.41,3.47-3.53,3.47c-2.41,0-3.44-1.81-3.44-3.34,0-1.37,1.06-3.32,3.49-3.32Zm.2,6.31c.79,0,2.38-.42,2.38-2.88,0-2.04-1.24-3.11-2.63-3.11-1.47,0-2.53,.92-2.53,2.77,0,1.98,1.19,3.22,2.78,3.22Z"/><path d="M56.73,63.98c1.98,0,3.48,1.21,3.48,3.19s-1.41,3.47-3.53,3.47c-2.41,0-3.44-1.81-3.44-3.34,0-1.37,1.06-3.32,3.49-3.32Zm.2,6.31c.79,0,2.38-.42,2.38-2.88,0-2.04-1.24-3.11-2.63-3.11-1.47,0-2.53,.92-2.53,2.77,0,1.98,1.19,3.22,2.78,3.22Z"/><path d="M62.51,68.08c0,1.25,.02,1.76,.18,1.91,.14,.14,.48,.2,1.17,.2,.46,0,.85,0,1.06-.26,.11-.13,.18-.31,.21-.48,.01-.06,.04-.11,.09-.11,.04,0,.06,.04,.06,.13s-.06,.6-.13,.85c-.06,.2-.09,.23-.56,.23-.63,0-1.12,0-1.53-.03-.4-.01-.7-.02-.96-.02-.04,0-.19,0-.36,0-.18,.01-.37,.02-.51,.02-.09,0-.14-.02-.14-.07,0-.03,.02-.07,.07-.07,.08,0,.19-.02,.27-.04,.17-.04,.19-.2,.23-.45,.05-.35,.05-1.02,.05-1.84v-1.5c0-1.32,0-1.56-.02-1.83-.02-.29-.07-.43-.36-.47-.07,0-.22-.02-.3-.02-.03,0-.07-.04-.07-.07,0-.05,.04-.07,.14-.07,.4,0,.95,.02,1,.02,.04,0,.7-.02,.97-.02,.09,0,.14,.02,.14,.07,0,.03-.04,.06-.07,.06-.06,0-.19,.01-.29,.02-.26,.05-.31,.18-.33,.48,0,.27,0,.51,0,1.83v1.52Z"/><path d="M72,63.98c1.98,0,3.48,1.21,3.48,3.19s-1.41,3.47-3.53,3.47c-2.41,0-3.44-1.81-3.44-3.34,0-1.37,1.06-3.32,3.49-3.32Zm.2,6.31c.79,0,2.38-.42,2.38-2.88,0-2.04-1.24-3.11-2.63-3.11-1.47,0-2.53,.92-2.53,2.77,0,1.98,1.19,3.22,2.78,3.22Z"/><path d="M76.99,66.56c0-1.32,0-1.56-.02-1.83-.02-.29-.07-.43-.36-.47-.07,0-.22-.02-.3-.02-.03,0-.07-.04-.07-.07,0-.05,.04-.07,.14-.07,.4,0,.95,.02,1,.02,.17,0,2.08,0,2.28,0,.17-.01,.32-.01,.4-.04,.05,0,.09-.05,.12-.05,.04,0,.06,.04,.06,.08,0,.06-.04,.16-.07,.4,0,.08-.02,.46-.04,.56,0,.04-.04,.09-.08,.09s-.07-.04-.07-.1c0-.07-.03-.21-.08-.32-.05-.11-.26-.25-.6-.25l-1.44-.02s-.07,.02-.07,.09v2.32c0,.05,0,.08,.06,.08h1.2c.15,0,.28,0,.4-.02,.21-.02,.33-.05,.41-.15,.04-.05,.08-.09,.11-.09,.04,0,.05,.03,.05,.07,0,.05-.06,.19-.08,.47-.02,.17-.03,.51-.03,.57,0,.08-.02,.17-.08,.17-.05,0-.06-.04-.06-.08,0-.09-.02-.21-.06-.31-.04-.12-.18-.23-.45-.27-.22-.03-1.26-.02-1.41-.02-.05,0-.06,.02-.06,.08v.68c0,.84,0,1.51,.04,1.84,.03,.25,.08,.41,.32,.45,.13,.02,.32,.04,.4,.04,.05,0,.07,.04,.07,.07,0,.04-.04,.07-.14,.07-.49,0-1.06-.03-1.1-.03-.05,0-.6,.03-.87,.03-.09,0-.14-.02-.14-.07,0-.03,.02-.07,.07-.07,.08,0,.19-.03,.27-.04,.17-.03,.19-.2,.23-.45,.05-.35,.05-1.02,.05-1.84v-1.5Z"/><path d="M91.37,69.43c.03,.3,.09,.76,.45,.88,.25,.08,.48,.08,.57,.08,.04,0,.07,.02,.07,.06,0,.05-.08,.08-.18,.08-.2,0-1.18-.02-1.5-.05-.21-.02-.25-.05-.25-.09,0-.03,.02-.06,.06-.07,.05-.01,.06-.14,.04-.3l-.42-4.3h-.02l-2.12,4.34c-.18,.37-.23,.45-.31,.45s-.13-.08-.3-.39c-.23-.42-.81-1.51-1.03-1.97-.26-.54-.97-1.97-1.12-2.32h-.04l-.34,3.84c0,.13,0,.29,0,.43,0,.13,.08,.21,.21,.24,.15,.04,.28,.05,.34,.05,.03,0,.07,.03,.07,.06,0,.06-.06,.08-.16,.08-.33,0-.75-.03-.82-.03-.08,0-.5,.03-.74,.03-.09,0-.15-.02-.15-.08,0-.03,.04-.06,.09-.06,.07,0,.13-.01,.26-.03,.29-.05,.3-.36,.34-.68l.64-5.55c.01-.09,.05-.15,.1-.15,.06,0,.13,.03,.18,.13l2.66,5.28,2.56-5.27c.04-.08,.08-.14,.14-.14s.11,.07,.13,.23l.6,5.22Z"/><path d="M92.99,66.56c0-1.32,0-1.56-.02-1.83-.02-.27-.07-.43-.36-.47-.07,0-.22-.02-.3-.02-.03,0-.07-.04-.07-.07,0-.05,.04-.07,.14-.07,.4,0,.93,.02,1.01,.02s.63-.02,.89-.02c.1,0,.15,.02,.15,.07,0,.03-.04,.07-.08,.07-.06,0-.11,0-.22,.02-.23,.04-.28,.19-.3,.47-.02,.27-.02,.51-.02,1.83v1.19c0,1.23,.27,1.74,.65,2.08,.43,.39,.81,.46,1.31,.46,.54,0,1.06-.24,1.36-.6,.41-.49,.5-1.19,.5-2.06v-1.07c0-1.32-.01-1.56-.02-1.83,0-.27-.06-.43-.35-.47-.07,0-.22-.02-.3-.02-.04,0-.07-.04-.07-.07,0-.05,.04-.07,.14-.07,.39,0,.9,.02,.95,.02,.06,0,.48-.02,.74-.02,.1,0,.14,.02,.14,.07,0,.03-.03,.07-.07,.07-.06,0-.11,0-.22,.02-.24,.05-.29,.19-.31,.47-.02,.27,0,.51,0,1.83v.91c0,.92-.12,1.95-.82,2.55-.64,.55-1.32,.62-1.84,.62-.29,0-1.21-.02-1.83-.6-.43-.4-.77-.99-.77-2.23v-1.25Z"/><path d="M99.57,70.41c-.12-.06-.13-.09-.13-.32,0-.42,.04-.76,.05-.9,0-.09,.02-.14,.07-.14s.08,.03,.08,.1,0,.19,.03,.31c.14,.62,.8,.84,1.39,.84,.87,0,1.32-.49,1.32-1.13s-.33-.9-1.11-1.48l-.4-.3c-.95-.71-1.26-1.23-1.26-1.82,0-1,.79-1.6,1.95-1.6,.35,0,.7,.05,.91,.1,.17,.04,.24,.04,.31,.04s.09,.01,.09,.06c0,.04-.04,.32-.04,.9,0,.13,0,.19-.07,.19s-.07-.04-.08-.11c0-.1-.08-.33-.13-.42-.06-.1-.35-.42-1.14-.42-.64,0-1.17,.32-1.17,.92,0,.54,.27,.85,1.14,1.44l.25,.17c1.07,.73,1.44,1.32,1.44,2.05,0,.5-.19,1.04-.82,1.45-.37,.24-.92,.3-1.4,.3-.41,0-.92-.06-1.28-.23Z"/><path d="M105.58,68.06c0,.82,0,1.49,.04,1.84,.03,.25,.06,.41,.32,.45,.13,.02,.32,.04,.4,.04,.05,0,.07,.04,.07,.07,0,.04-.04,.07-.14,.07-.49,0-1.06-.03-1.1-.03-.05,0-.6,.03-.87,.03-.09,0-.14-.02-.14-.07,0-.03,.02-.07,.07-.07,.08,0,.19-.02,.27-.04,.17-.04,.2-.2,.23-.45,.04-.35,.05-1.02,.05-1.84v-1.5c0-1.32,0-1.56-.02-1.83-.02-.29-.09-.42-.28-.46-.1-.02-.21-.03-.27-.03-.04,0-.07-.04-.07-.07,0-.05,.04-.07,.14-.07,.29,0,.84,.02,.89,.02,.04,0,.61-.02,.88-.02,.1,0,.14,.02,.14,.07,0,.03-.04,.07-.07,.07-.06,0-.12,0-.22,.02-.24,.05-.29,.17-.31,.47,0,.27,0,.51,0,1.83v1.5Z"/><path d="M108.13,69.73c-.86-.74-1.07-1.71-1.07-2.52,0-.57,.21-1.56,.99-2.32,.53-.51,1.33-.91,2.68-.91,.35,0,.85,.03,1.28,.1,.33,.06,.61,.12,.9,.13,.09,0,.11,.04,.11,.09,0,.07-.02,.17-.04,.48-.01,.28-.01,.75-.02,.87,0,.13-.05,.18-.1,.18-.06,0-.07-.06-.07-.18,0-.33-.14-.67-.37-.85-.31-.26-.95-.47-1.73-.47-1.13,0-1.67,.3-1.98,.59-.65,.6-.79,1.36-.79,2.22,0,1.63,1.29,3.08,3.17,3.08,.66,0,1.1-.05,1.45-.4,.19-.19,.31-.55,.34-.71,.02-.09,.03-.12,.09-.12,.04,0,.08,.06,.08,.12s-.12,.8-.21,1.09c-.05,.16-.07,.19-.22,.25-.36,.14-1.02,.19-1.59,.19-1.32,0-2.21-.31-2.9-.91Z"/></g><g><path d="M.5,88.03c.64,.34,1.67,.67,2.71,.67,1.12,0,1.71-.46,1.71-1.17s-.51-1.06-1.81-1.5c-1.79-.64-2.98-1.63-2.98-3.2,0-1.84,1.55-3.23,4.08-3.23,1.23,0,2.11,.24,2.75,.54l-.54,1.95c-.42-.21-1.2-.51-2.24-.51s-1.57,.5-1.57,1.04c0,.69,.59,.99,2,1.52,1.9,.7,2.79,1.7,2.79,3.22,0,1.81-1.38,3.34-4.34,3.34-1.23,0-2.45-.34-3.06-.67l.5-2Z"/><path d="M10.56,81.81h-2.91v-2.05H15.93v2.05h-2.94v8.74h-2.43v-8.74Z"/><path d="M19.05,79.76v6.19c0,1.87,.72,2.82,1.95,2.82s1.98-.9,1.98-2.82v-6.19h2.43v6.05c0,3.33-1.68,4.91-4.5,4.91s-4.31-1.52-4.31-4.95v-6.02h2.43Z"/><path d="M27.03,79.92c.9-.16,2.06-.24,3.28-.24,2.06,0,3.41,.38,4.43,1.15,1.12,.83,1.82,2.14,1.82,4.07,0,2.07-.75,3.49-1.78,4.37-1.14,.94-2.88,1.39-4.99,1.39-1.26,0-2.18-.08-2.77-.16v-10.58Zm2.43,8.79c.21,.05,.56,.05,.85,.05,2.22,.02,3.68-1.2,3.68-3.78,0-2.24-1.31-3.42-3.43-3.42-.53,0-.9,.05-1.1,.1v7.06Z"/><path d="M44.08,85.98h-3.97v2.56h4.43v2h-6.87v-10.79h6.64v2h-4.21v2.24h3.97v1.99Z"/><path d="M45.81,90.55v-10.79h2.85l2.24,3.95c.64,1.14,1.26,2.48,1.76,3.7h.03c-.14-1.42-.19-2.88-.19-4.51v-3.14h2.24v10.79h-2.56l-2.3-4.16c-.64-1.17-1.36-2.54-1.87-3.81h-.06c.08,1.44,.11,2.96,.11,4.72v3.25h-2.24Z"/><path d="M58.35,81.81h-2.91v-2.05h8.29v2.05h-2.94v8.74h-2.43v-8.74Z"/><path d="M69.79,87.78l-.75,2.77h-2.53l3.3-10.79h3.19l3.36,10.79h-2.62l-.83-2.77h-3.11Zm2.74-1.83l-.67-2.29c-.18-.64-.37-1.46-.53-2.08h-.05c-.14,.64-.32,1.46-.48,2.08l-.66,2.29h2.39Z"/><path d="M77.12,79.92c.9-.16,2.06-.24,3.28-.24,2.06,0,3.41,.38,4.43,1.15,1.12,.83,1.83,2.14,1.83,4.07,0,2.07-.75,3.49-1.78,4.37-1.14,.94-2.88,1.39-4.99,1.39-1.26,0-2.18-.08-2.77-.16v-10.58Zm2.43,8.79c.21,.05,.56,.05,.85,.05,2.22,.02,3.68-1.2,3.68-3.78,0-2.24-1.31-3.42-3.43-3.42-.53,0-.9,.05-1.1,.1v7.06Z"/><path d="M89.89,90.55l-3.46-10.79h2.67l1.31,4.56c.37,1.3,.7,2.51,.96,3.86h.05c.27-1.3,.61-2.58,.98-3.81l1.38-4.61h2.59l-3.63,10.79h-2.85Z"/><path d="M99.44,79.76v10.79h-2.43v-10.79h2.43Z"/><path d="M101.08,88.03c.64,.34,1.67,.67,2.71,.67,1.12,0,1.71-.46,1.71-1.17s-.51-1.06-1.81-1.5c-1.79-.64-2.98-1.63-2.98-3.2,0-1.84,1.55-3.23,4.08-3.23,1.23,0,2.11,.24,2.75,.54l-.54,1.95c-.42-.21-1.2-.51-2.24-.51s-1.57,.5-1.57,1.04c0,.69,.59,.99,2,1.52,1.91,.7,2.79,1.7,2.79,3.22,0,1.81-1.38,3.34-4.34,3.34-1.23,0-2.45-.34-3.06-.67l.5-2Z"/><path d="M113.61,90.72c-3.18,0-5.07-2.42-5.07-5.49,0-3.23,2.08-5.65,5.25-5.65s5.12,2.48,5.12,5.46c0,3.55-2.13,5.68-5.28,5.68h-.02Zm.13-1.94c1.65,0,2.59-1.55,2.59-3.67,0-1.94-.91-3.6-2.59-3.6s-2.62,1.63-2.62,3.65,.98,3.62,2.61,3.62h.02Z"/><path d="M120.03,79.92c.78-.14,1.94-.24,3.25-.24,1.6,0,2.72,.24,3.49,.86,.66,.51,1.01,1.26,1.01,2.26,0,1.36-.98,2.3-1.9,2.64v.05c.75,.3,1.17,1.01,1.44,2,.34,1.23,.66,2.64,.86,3.06h-2.5c-.16-.32-.43-1.18-.74-2.51-.3-1.36-.77-1.71-1.78-1.73h-.72v4.24h-2.42v-10.63Zm2.42,4.63h.96c1.22,0,1.94-.61,1.94-1.55s-.67-1.49-1.79-1.49c-.59,0-.93,.03-1.1,.08v2.96Z"/><path d="M131.14,90.55v-4.42l-3.41-6.37h2.8l1.09,2.59c.34,.78,.58,1.36,.83,2.07h.03c.24-.67,.5-1.3,.82-2.07l1.09-2.59h2.74l-3.55,6.29v4.5h-2.43Z"/><path d="M37.11,106.24c-.43,.21-1.46,.46-2.75,.46-3.73,0-5.65-2.34-5.65-5.41,0-3.67,2.62-5.7,5.89-5.7,1.26,0,2.22,.26,2.66,.46l-.51,1.94c-.48-.21-1.17-.4-2.05-.4-1.92,0-3.43,1.17-3.43,3.57,0,2.14,1.28,3.51,3.44,3.51,.75,0,1.55-.14,2.05-.35l.35,1.92Z"/><path d="M42.42,106.72c-3.19,0-5.07-2.42-5.07-5.49,0-3.23,2.08-5.65,5.25-5.65s5.12,2.48,5.12,5.46c0,3.55-2.13,5.68-5.28,5.68h-.02Zm.13-1.94c1.65,0,2.59-1.55,2.59-3.67,0-1.94-.91-3.6-2.59-3.6s-2.62,1.63-2.62,3.65,.98,3.62,2.61,3.62h.02Z"/><path d="M57.89,102.42c-.05-1.3-.1-2.85-.1-4.43h-.03c-.35,1.38-.8,2.91-1.22,4.18l-1.31,4.21h-1.9l-1.15-4.18c-.35-1.26-.7-2.79-.98-4.21h-.03c-.05,1.46-.11,3.12-.18,4.47l-.21,4.1h-2.26l.69-10.79h3.25l1.06,3.6c.35,1.25,.67,2.59,.91,3.86h.06c.29-1.25,.66-2.67,1.02-3.87l1.14-3.58h3.2l.58,10.79h-2.37l-.18-4.13Z"/><path d="M70.95,102.42c-.05-1.3-.1-2.85-.1-4.43h-.03c-.35,1.38-.8,2.91-1.22,4.18l-1.31,4.21h-1.9l-1.15-4.18c-.35-1.26-.7-2.79-.98-4.21h-.03c-.05,1.46-.11,3.12-.18,4.47l-.21,4.1h-2.26l.69-10.79h3.25l1.06,3.6c.35,1.25,.67,2.59,.91,3.86h.06c.29-1.25,.66-2.67,1.02-3.87l1.14-3.58h3.2l.58,10.79h-2.37l-.18-4.13Z"/><path d="M77.36,95.76v10.79h-2.43v-10.79h2.43Z"/><path d="M80.95,97.81h-2.91v-2.05h8.29v2.05h-2.95v8.74h-2.43v-8.74Z"/><path d="M89.52,97.81h-2.91v-2.05h8.29v2.05h-2.95v8.74h-2.43v-8.74Z"/><path d="M102,101.98h-3.97v2.56h4.43v2h-6.87v-10.79h6.64v2h-4.21v2.24h3.97v1.99Z"/><path d="M110.13,101.98h-3.97v2.56h4.43v2h-6.87v-10.79h6.64v2h-4.21v2.24h3.97v1.99Z"/></g><path d="M0.52 74.56H138.44V75.55H0.52z" fill="#be0000"/></svg>