<?xml version="1.0" encoding="UTF-8"?><svg xmlns="http://www.w3.org/2000/svg" xmlns:xlink="http://www.w3.org/1999/xlink" height="62.0" preserveAspectRatio="xMidYMid meet" version="1.0" viewBox="0.9 1.0 62.1 62.0" width="62.1" zoomAndPan="magnify"><g id="change1_1"><path d="M62.781,61.375l-2.635-3.294c-0.752-0.939-1.735-1.658-2.838-2.106c1.547-0.983,2.464-2.332,2.523-2.421 c0.159-0.239,0.208-0.534,0.135-0.812c-0.074-0.277-0.263-0.509-0.52-0.638C57.321,51.042,56,48.905,56,46.528V45v-6.877 c0-2.616-1.616-4.901-4-5.832V23h2c0.553,0,1-0.448,1-1v-3h1c0.553,0,1-0.448,1-1v-4c0-0.121-0.029-0.236-0.07-0.346 c-0.011-0.031-0.025-0.059-0.039-0.088c-0.041-0.084-0.093-0.162-0.156-0.231c-0.015-0.017-0.026-0.036-0.042-0.051 c-0.072-0.07-0.153-0.131-0.246-0.178l-24-12c-0.281-0.141-0.613-0.141-0.895,0l-24,12c-0.093,0.046-0.174,0.108-0.246,0.178 c-0.016,0.016-0.027,0.035-0.042,0.051c-0.063,0.07-0.115,0.147-0.156,0.232c-0.014,0.029-0.027,0.057-0.039,0.087 C7.029,13.764,7,13.879,7,14v4c0,0.552,0.447,1,1,1h1v3c0,0.552,0.447,1,1,1h2v8.521C9.559,33.541,8,36.592,8,40v5v1.528 c0,2.377-1.321,4.515-3.447,5.578c-0.257,0.128-0.445,0.361-0.52,0.638c-0.073,0.277-0.024,0.573,0.135,0.812 c0.059,0.089,0.977,1.437,2.523,2.421c-1.103,0.448-2.086,1.167-2.838,2.107l-2.635,3.293c-0.24,0.3-0.286,0.711-0.12,1.058 C1.266,62.78,1.615,63,2,63h13h34h13c0.385,0,0.734-0.22,0.901-0.567C63.067,62.087,63.021,61.675,62.781,61.375z M57.485,53.258 C56.761,54.006,55.514,55,54,55c-0.15,0-0.289,0.038-0.417,0.097L49,54.18V54c0-0.026-0.013-0.048-0.015-0.073 c1.858-1.073,3.242-2.869,3.771-5.003c0.527-0.101,1.018-0.305,1.449-0.592C54.648,50.322,55.803,52.076,57.485,53.258z M10,45 c0-0.737,0.405-1.375,1-1.722v3.443C10.405,46.375,10,45.737,10,45z M13,42.954c2.228-0.206,4.312-1.099,6-2.575 c0.609,0.531,1.287,0.965,2,1.344V45c0,1.947,1.399,3.568,3.244,3.924c0.054,0.217,0.114,0.43,0.185,0.64 c-0.002,0.003-0.005,0.005-0.006,0.008C23.434,51.654,21.306,53,19,53c-3.309,0-6-2.691-6-6V42.954z M32,31c4.963,0,9,4.038,9,9 v1.556c-0.31-0.181-0.644-0.322-1-0.414V40c0-0.552-0.447-1-1-1H25c-0.553,0-1,0.448-1,1v1.142c-0.356,0.093-0.69,0.233-1,0.414V40 C23,35.038,27.037,31,32,31z M34,29.191C33.35,29.071,32.684,29,32,29s-1.35,0.071-2,0.191V27h4V29.191z M45,40.379 c1.689,1.477,3.772,2.369,6,2.575V47c0,3.309-2.691,6-6,6c-2.351,0-4.434-1.353-5.42-3.46c0.068-0.202,0.125-0.408,0.177-0.616 C41.601,48.568,43,46.947,43,45v-3.277C43.713,41.343,44.392,40.909,45,40.379z M54,45c0,0.737-0.405,1.375-1,1.722v-3.443 C53.595,43.625,54,44.263,54,45z M32,53c-3.309,0-6-2.691-6-6v-6h12v6C38,50.309,35.309,53,32,53z M23,45 c0-0.737,0.405-1.375,1-1.722v3.443C23.405,46.375,23,45.737,23,45z M40,43.278c0.595,0.347,1,0.985,1,1.722s-0.405,1.375-1,1.722 V43.278z M18.2,56.829C17.487,56.516,17,55.802,17,55v-0.263C17.641,54.903,18.308,55,19,55c0.684,0,1.353-0.102,2-0.271V55 c0,0.208-0.042,0.41-0.105,0.606C19.911,55.811,19.002,56.243,18.2,56.829z M22.982,53.912c0.984-0.567,1.843-1.336,2.514-2.271 c0.667,0.932,1.527,1.714,2.524,2.289c-0.006,0.082-0.013,0.163,0.002,0.246l-5.034,1.007C22.991,55.122,23,55.061,23,55v-1 C23,53.969,22.985,53.943,22.982,53.912z M32,55c0.445,0,0.878-0.046,1.303-0.116L32,57.056l-1.303-2.172 C31.122,54.954,31.555,55,32,55z M35.979,53.93c0.997-0.575,1.857-1.357,2.524-2.289c0.671,0.943,1.526,1.714,2.512,2.281 C41.014,53.949,41,53.972,41,54v1c0,0.061,0.009,0.122,0.012,0.183l-5.034-1.007C35.993,54.093,35.985,54.013,35.979,53.93z M43.105,55.606C43.042,55.41,43,55.208,43,55v-0.27c0.644,0.165,1.311,0.27,2,0.27c0.692,0,1.359-0.097,2-0.263V55 c0,0.802-0.487,1.516-1.2,1.829C44.998,56.242,44.089,55.811,43.105,55.606z M54,38.123v3.433C53.409,41.212,52.732,41,52,41 c-2.312,0-4.486-0.9-6.122-2.537l-0.172-0.171c-0.391-0.39-1.021-0.39-1.412,0l-0.173,0.172c-0.356,0.356-0.741,0.677-1.15,0.964 c-0.138-2.67-1.227-5.087-2.941-6.922C41.496,31.533,43.223,31,45,31h0.395c1.923,0,3.707,0.955,4.773,2.555 c0.019,0.029,0.05,0.047,0.072,0.074c0.038,0.046,0.077,0.087,0.122,0.125c0.051,0.043,0.105,0.078,0.164,0.11 c0.051,0.028,0.102,0.053,0.158,0.072c0.026,0.009,0.048,0.027,0.075,0.034C52.667,34.448,54,36.155,54,38.123z M46,29.036 C45.799,29.02,45.598,29,45.395,29H45c-1.022,0-2.031,0.147-3,0.422V27h4V29.036z M32,3.118L51.764,13H41c-0.553,0-1,0.448-1,1 s0.447,1,1,1h14v2H36.46c0.954-1.063,1.54-2.462,1.54-4c0-3.309-2.691-6-6-6s-6,2.691-6,6c0,1.538,0.586,2.937,1.54,4H9v-2h14 c0.553,0,1-0.448,1-1s-0.447-1-1-1H12.236L32,3.118z M28,13c0-2.206,1.794-4,4-4s4,1.794,4,4s-1.794,4-4,4S28,15.206,28,13z M11,19 h42v2H11V19z M14,23h36v7.534c-0.612-0.455-1.282-0.824-2-1.08V26c0-0.552-0.447-1-1-1h-6c-0.553,0-1,0.448-1,1v4 c0,0.068,0.026,0.128,0.039,0.192c-0.539,0.273-1.058,0.587-1.548,0.947c-0.763-0.56-1.597-1.025-2.491-1.375V26 c0-0.552-0.447-1-1-1h-6c-0.553,0-1,0.448-1,1v3.764c-0.894,0.351-1.729,0.815-2.491,1.376c-0.49-0.36-1.008-0.675-1.547-0.947 C23.974,30.128,24,30.068,24,30v-4c0-0.552-0.447-1-1-1h-6c-0.553,0-1,0.448-1,1v3.426c-0.698,0.198-1.366,0.463-2,0.788V23z M22,29.422C21.031,29.147,20.022,29,19,29c-0.338,0-0.67,0.021-1,0.051V27h4V29.422z M19,31c1.778,0,3.504,0.534,4.97,1.506 c-1.714,1.836-2.803,4.252-2.941,6.922c-0.409-0.287-0.794-0.608-1.151-0.965l-0.172-0.171c-0.391-0.39-1.021-0.39-1.412,0 l-0.173,0.172C16.486,40.1,14.312,41,12,41c-0.732,0-1.409,0.212-2,0.556V40C10,35.038,14.037,31,19,31z M9.794,48.332 c0.432,0.287,0.922,0.49,1.449,0.592c0.53,2.134,1.913,3.93,3.771,5.003C15.013,53.952,15,53.974,15,54v0.18l-4.583,0.917 C10.289,55.038,10.15,55,10,55c-1.514,0-2.761-0.994-3.485-1.742C8.197,52.077,9.352,50.323,9.794,48.332z M5.416,59.332 c0.733-0.917,1.771-1.549,2.924-1.78l6.852-1.37c0.264,0.844,0.801,1.573,1.518,2.08L14.519,61H4.081L5.416,59.332z M17.081,61 l1.335-1.668c0.733-0.917,1.771-1.549,2.924-1.78l7.701-1.54l2.102,3.503C31.323,59.816,31.648,60,32,60s0.677-0.184,0.857-0.485 l2.102-3.503l7.701,1.54c1.152,0.23,2.19,0.862,2.924,1.779L46.919,61H17.081z M49.481,61l-2.191-2.739 c0.717-0.507,1.254-1.236,1.518-2.08l6.852,1.37c1.152,0.23,2.19,0.862,2.924,1.779L59.919,61H49.481z" fill="inherit"/></g></svg>